<?xml version="1.0" encoding="UTF-8"?>
<svg id="Camada_1" data-name="Camada 1" xmlns="http://www.w3.org/2000/svg" viewBox="0 0 50 38.74">
  <path d="M25,37.98c-2.37-.51-10.81-.13-10.81-.13l5.51-1.02c.56-.1.97-.59.97-1.16V14.73c0-1.97-1.51-3.6-3.47-3.76L.63,9.63l13.58-.98c3.82-.28,6.98-3.06,7.73-6.81l.22-1.07.87,4.34c.27,1.36.97,2.59,1.97,3.51,1-.93,1.69-2.15,1.97-3.51l.87-4.34.22,1.07c.75,3.75,3.92,6.54,7.73,6.81l13.58.98-16.57,1.34c-1.96.16-3.47,1.8-3.47,3.76v20.95c0,.57.41,1.06.97,1.16l5.51,1.02s-8.45-.38-10.81.13h0ZM26.03,36.01c.2-.13.32-.34.32-.58V14.47c0-1.36-.49-2.64-1.35-3.64-.86,1-1.35,2.29-1.35,3.64v20.96c0,.23.12.45.32.58l1.03.65,1.03-.65Z" style="fill: #f01513;"/>
</svg>